<svg width="96" height="96" viewBox="0 0 96 96" fill="none" xmlns="http://www.w3.org/2000/svg">
  <path d="M48 60c6.627 0 12-5.373 12-12s-5.373-12-12-12-12 5.373-12 12 5.373 12 12 12zm0-20c4.411 0 8 3.589 8 8s-3.589 8-8 8-8-3.589-8-8 3.589-8 8-8z" fill="#000"/>
  <path d="M85.333 52h-5.926a34.45 34.45 0 0 1-2.963 7.148l4.187 4.187a2.667 2.667 0 0 1 0 3.771L72.294 75.44a2.667 2.667 0 0 1-3.771 0l-4.187-4.187A34.45 34.45 0 0 1 57.188 74.2v5.926a2.667 2.667 0 0 1-2.667 2.667H38.812a2.667 2.667 0 0 1-2.667-2.667V74.2a34.45 34.45 0 0 1-7.148-2.963l-4.187 4.187a2.667 2.667 0 0 1-3.771 0l-8.337-8.337a2.667 2.667 0 0 1 0-3.771l4.187-4.187A34.45 34.45 0 0 1 13.926 52H8a2.667 2.667 0 0 1-2.667-2.667V33.667A2.667 2.667 0 0 1 8 31h5.926a34.45 34.45 0 0 1 2.963-7.148l-4.187-4.187a2.667 2.667 0 0 1 0-3.771l8.337-8.337a2.667 2.667 0 0 1 3.771 0l4.187 4.187A34.45 34.45 0 0 1 36.145 8.926V3a2.667 2.667 0 0 1 2.667-2.667h15.709A2.667 2.667 0 0 1 57.188 3v5.926a34.45 34.45 0 0 1 7.148 2.963l4.187-4.187a2.667 2.667 0 0 1 3.771 0l8.337 8.337a2.667 2.667 0 0 1 0 3.771l-4.187 4.187A34.45 34.45 0 0 1 79.407 31h5.926A2.667 2.667 0 0 1 88 33.667v15.709A2.667 2.667 0 0 1 85.333 52z" fill="#000"/>
</svg> 